<?xml version="1.0" encoding="UTF-8"?>
<!DOCTYPE svg PUBLIC "-//W3C//DTD SVG 1.1//EN" "http://www.w3.org/Graphics/SVG/1.1/DTD/svg11.dtd">
<!-- Creator: CorelDRAW -->
<svg xmlns="http://www.w3.org/2000/svg" xml:space="preserve" width="9mm" height="9.0002mm" style="shape-rendering:geometricPrecision; text-rendering:geometricPrecision; image-rendering:optimizeQuality; fill-rule:evenodd; clip-rule:evenodd"
viewBox="0 0 0.0404772 0.0404781"
 xmlns:xlink="http://www.w3.org/1999/xlink">
 <defs>
  <style type="text/css">
   <![CDATA[
    .str0 {stroke:lime;stroke-width:0.0449747}
    .fil3 {fill:none}
    .fil1 {fill:lime}
    .fil2 {fill:#2A2A2A}
    .fil0 {fill:#FEFEFE}
   ]]>
  </style>
   <clipPath id="id0">
    <path d="M0.0202386 4.49747e-007c0.0111776,0 0.0202386,0.00906105 0.0202386,0.0202386 0,0.0111776 -0.00906105,0.0202386 -0.0202386,0.0202386 -0.0111776,0 -0.0202386,-0.00906105 -0.0202386,-0.0202386 0,-0.0111776 0.00906105,-0.0202386 0.0202386,-0.0202386z"/>
   </clipPath>
 </defs>
 <g id="Capa_x0020_1">
  <metadata id="CorelCorpID_0Corel-Layer"/>
  <g>
  </g>
  <g style="clip-path:url(#id0)">
   <g>
    <path class="fil0" d="M0.00902912 0.00148057c-0.000122781,-0.000152464 -4.22762e-005,-6.70123e-005 -0.000197439,-0.000157861 -0.00216688,-0.00126874 -0.00569875,-0.00222535 -0.00816111,-0.00240705 0.000194291,0.000269848 9.57961e-005,0.000721394 0.000107939,0.0012449 3.553e-005,0.00156287 -0.000108389,0.0012476 0.000975951,0.0012476 0.00128493,0 0.00690542,-8.5452e-005 0.00727466,7.24093e-005z"/>
    <circle class="fil1 str0" cx="0.0202386" cy="0.0202391" r="0.0223114"/>
    <path class="fil2" d="M0.0233212 0.0256324c0.000703404,-0.000229821 0.00192582,-0.000280642 0.00272682,-0.000484378 0.00108074,-0.000274795 0.00111447,-0.000553639 0.00190153,-0.00125884 0.000241064,0.00021363 0.000460991,0.000678668 0.000626947,0.00102677 0.000946718,0.00198563 -0.00158311,0.00475698 -0.00417006,0.00299891 -0.000638641,-0.000434456 -0.0011608,-0.00114686 -0.00108524,-0.00228247zm0.00747525 -0.00172613c0.000216328,0.000116934 0.000199688,0.000250059 0.000314823,0.000429508 0.000110188,0.000172703 0.000243763,0.000244662 0.000414217,0.000366994 0.00074658,0.000535199 0.0028424,0.000602211 0.00393394,0.000718696 -2.02386e-005,0.00122376 -0.000321119,0.00183452 -0.00103217,0.00235847 -0.00146618,0.00108029 -0.00389841,0.00044435 -0.00430363,-0.00128178 -0.000217228,-0.000923331 0.000140321,-0.00229641 0.000672822,-0.00259189zm-0.0177736 -0.00782155c-0.000982248,4.54245e-005 -0.00247721,9.39971e-005 -0.00343562,1.43919e-005 -0.000645387,-5.30702e-005 -0.000708801,-0.000448848 -0.000518558,-0.00111672 0.000232969,-0.000819889 0.000921082,-0.00159345 0.00174817,-0.00172838 0.000617053,-0.000101193 0.00279383,0.000740733 0.00220601,0.00283071zm0.0020369 -0.00189164c0.00103487,-0.000192042 0.00321569,0.000331014 0.00322604,0.00136048 1.07939e-005,0.00110008 -0.000893648,0.000612556 -0.00206254,0.000446149 -0.00144909,-0.000206434 -0.00227887,1.52914e-005 -0.00196809,-0.00107894 0.000138072,-0.000485727 0.00030268,-0.000634593 0.000804598,-0.000727691zm0.0276918 0.00940376c-0.000555438,0.00269893 -0.0016933,0.00527598 -0.0029409,0.00727736 -0.000483028,0.000774914 -0.0010749,0.00154533 -0.00163393,0.00221635 -0.000206884,0.00024826 -0.000374639,0.000474033 -0.000598613,0.000685864 -0.000395777,0.000374639 -0.00207648,0.00242594 -0.00270703,0.00237511 -0.000225323,-0.000643138 -0.000243313,-0.00072949 -0.000545993,-0.00135329 -0.000192042,-0.000394878 -0.000499219,-0.000879705 -0.00063999,-0.00127233 0.000483928,-0.000545543 0.000582872,-0.000598613 0.00099574,-0.00102722 0.000451546,-0.000469086 0.00148102,-0.00153814 0.00207154,-0.00189119 0.00154263,-0.000922881 0.000520357,-0.00206074 0.000487076,-0.00277269 -4.31757e-005,-0.000926479 0.00063999,-0.00234003 -0.000205984,-0.00528993 -0.000512262,-0.00178685 -0.00185386,-0.00361462 -0.003374,-0.00449612 -0.00203421,-0.00117969 -0.0036407,-0.00155837 -0.00635538,-0.00102677 -0.00221545,0.000434006 -0.00328855,0.00132316 -0.00465488,0.00282936 -8.86002e-005,9.75951e-005 -0.000113336,0.000153814 -0.00019564,0.000252308 -0.00116395,0.00138882 -0.00126559,0.00193391 -0.00156017,0.00340728 -0.000567131,0.00284015 -0.000968306,0.00171129 1.66406e-005,0.00371356 8.77007e-005,0.00017855 0.000255456,0.000535199 0.000277944,0.000732188 6.83616e-005,0.000595915 -0.00103442,0.000739384 -0.000261753,0.00215384 0.00042726,0.00078166 0.000908039,0.000666975 0.00127458,0.000686314 0.00044525,2.33868e-005 0.000801,0.000674621 0.00103487,0.000968755 0.000270748,0.000340009 0.000641339,0.000645387 0.00102272,0.000930077 0.000618402,0.000460991 0.00114146,0.000796502 0.00186375,0.00109558 0.000306728,0.000126829 0.000499669,0.000161909 0.000587819,0.000348554l-0.00181743 -0.000488425 -0.00121072 0.00269443c-0.000300881,0.000969655 -0.00030268,0.00245607 -0.000620651,0.00321659l-0.000234768 -0.000246012 -0.000275695 -0.0010614c-0.000307177,-0.00131236 -0.00074658,-0.00295799 -0.00111537,-0.00424471 -0.00028424,-0.000990793 -0.00144594,-0.00486491 -0.00156872,-0.00552649l-0.00235982 -0.000591867c-0.000596814,-0.000162359 -0.00193616,-0.000460541 -0.00156152,-0.00128987 0.000104341,-0.00023072 0.00083653,-0.000541945 0.00128313,-0.000950316 0.000154263,-0.000140771 0.000254107,-0.000192492 0.000395328,-0.000331014 0.000954363,-0.000937723 0.00158356,-0.000744781 0.0018732,-0.00107669l-0.000577475 -0.00131641c7.01605e-005,-0.00056848 0.00105421,-0.000129527 0.00140951,-0.00055094l-0.000383185 -0.00163348 0.00233059 -0.00122781 -0.00217498 -0.00173018c0.00129527,-0.000610757 0.00264901,-0.00116305 0.00383095,-0.00193841 -0.000555887,-0.000621101 -0.00233104,-0.00103667 -0.00292695,-0.00152239l0.0010758 -0.0010668c0.000327416,-0.00030223 0.00163213,-0.0013371 0.00165957,-0.00175806 -0.000722294,-0.000104341 -0.00292965,-0.0003562 -0.00343787,-0.000691711l0.00193526 -0.00375854c-0.000568031,0.000205984 -0.00118014,0.000366094 -0.00176346,0.000581523 -0.000410619,0.000152015 -0.0014221,0.000531601 -0.00184711,0.000496521l-0.000420064 -0.00215474c-8.59017e-005,-0.000843726 -8.09545e-006,-0.00162539 -5.44194e-005,-0.00235757 -0.000841027,1.34924e-005 -0.00246192,0.0015134 -0.00306593,0.00208908 -0.000262203,0.000250059 -0.000597714,0.00060446 -0.000868911,0.000806846 -0.000478531,-0.000546892 -0.000974602,-0.00109783 -0.00140276,-0.00166946 -0.00024916,-0.000332813 -0.00114506,-0.00154803 -0.0015939,-0.00144009l-0.00037329 0.00202386c-0.000156062,0.000671023 -0.000375989,0.00129572 -0.000523506,0.00189074l-0.00366544 -0.000997089c0.000410169,0.00111897 0.00096021,0.00236477 0.000989444,0.00353996l-0.00459057 0.000613905c0.000633694,0.000684515 0.00242863,0.00245112 0.00253927,0.00334927l-0.00145538 0.00125614c-0.000352602,0.000250959 -0.00134384,0.000886002 -0.00145313,0.00119993 0.000926029,0.000375539 0.00161909,0.000573428 0.00241199,0.00113426 0.000287388,0.000203286 0.000395777,0.00031932 0.000626498,0.000546892 0.000316172,0.000312574 0.000304029,0.000387682 1.07939e-005,0.000721844l-0.000565782 0.000607608c-0.000194291,0.000197439 -0.000950765,0.000962009 -0.000991692,0.00134429l0.00243628 0.00106365 -0.000384084 0.00234003 0.0022186 0.000125929 0.000346305 0.00151115c0.00265171,-6.52133e-005 0.00117429,-0.00012458 0.0024952,0.000393978 0.000329215,0.000129077 0.000646736,0.000165957 0.000727241,0.000501918 0.0001781,0.000742982 -0.000791555,0.000899044 -0.00133035,0.00108479 -0.00062245,0.000214529 -0.00121117,0.000389031 -0.00184576,0.000610307 -0.000993042,0.000346305 -0.000955713,0.00015921 -0.00130382,0.0011509 -0.000346755,0.000988094 -0.00158176,0.00552694 -0.0016951,0.00565062 -0.00517614,-0.00588989 -0.00724902,-0.010986 -0.00647951,-0.0190122 0.000211381,-0.00220466 0.00117114,-0.00473764 0.00201981,-0.00652223 0.00108659,-0.00228472 0.00267689,-0.00452985 0.00452221,-0.00625373 0.000191592,-0.00017855 0.000323818,-0.000380486 0.000514511,-0.000543744l0.0011608 -0.000961559c0.000191143,-0.000151115 0.000412868,-0.00030223 0.000613005,-0.000448398 0.0165507,-0.0120825 0.038524,0.00297957 0.0345554,0.0222724zm-0.0263322 -0.0275502c-0.00244078,0.000539247 -0.00510238,0.00154083 -0.00722609,0.00281632 -0.0012485,0.000750178 -0.00304884,0.00199328 -0.0040963,0.00299172 -0.00216418,0.00206299 -0.00350938,0.00370502 -0.0049823,0.00645792 -0.00500973,0.00936194 -0.00307087,0.0223138 0.00526879,0.029136 0.000261753,0.00021408 0.000500119,0.000455144 0.000777613,0.000673271 0.00212595,0.00166991 0.00357999,0.00263822 0.00627577,0.00371671 0.00600188,0.00240165 0.0131654,0.00214889 0.0189748,-0.000608508 0.00103217,-0.000490224 0.00274661,-0.00142705 0.00360742,-0.00208638 0.000469086,-0.000359798 0.00127009,-0.000872509 0.00161234,-0.00123411 0.000182597,-0.000193841 0.000212281,-0.000186195 0.00039038,-0.000336861 0.000539697,-0.000456044 0.00206299,-0.00198473 0.00248755,-0.00253388 0.001159,-0.00150081 0.00193301,-0.00260269 0.00285185,-0.00429464 0.0095099,-0.0175194 -0.00627937,-0.0390416 -0.0259419,-0.0346975z"/>
   </g>
  </g>
  <path class="fil3" d="M0.0202386 4.49747e-007c0.0111776,0 0.0202386,0.00906105 0.0202386,0.0202386 0,0.0111776 -0.00906105,0.0202386 -0.0202386,0.0202386 -0.0111776,0 -0.0202386,-0.00906105 -0.0202386,-0.0202386 0,-0.0111776 0.00906105,-0.0202386 0.0202386,-0.0202386z"/>
 </g>
</svg>
